<?xml version="1.0" encoding="utf-8"?>
<!-- Generator: Adobe Illustrator 12.0.0, SVG Export Plug-In . SVG Version: 6.00 Build 51448)  -->
<!DOCTYPE svg PUBLIC "-//W3C//DTD SVG 1.1//EN" "http://www.w3.org/Graphics/SVG/1.1/DTD/svg11.dtd" [
	<!ENTITY ns_svg "http://www.w3.org/2000/svg">
	<!ENTITY ns_xlink "http://www.w3.org/1999/xlink">
]>
<svg  version="1.1" id="Layer_1" xmlns="&ns_svg;" xmlns:xlink="&ns_xlink;" width="850" height="850"
	 viewBox="628.5 227.438 850 850" overflow="visible" enable-background="new 628.5 227.438 850 850" xml:space="preserve">
<path fill="#53C6E9" d="M1479.939,977.848c0,55.229-44.771,100-100,100h-650c-55.229,0-100-44.771-100-100V327.974
	c0-55.229,44.771-100,100-100h650c55.229,0,100,44.771,100,100V977.848z"/>
<g id="XMLID_4_">
	<g>
		<path fill="#53C6E9" d="M1244.456,554.882c-0.97,0.399-1.528-0.84-2.198-1.311c-5.61-4.05-12.44-8.27-18.881-11.64
			c7.329,29.37,13.261,72.46,3.729,104.729c-5.35-10.31-8.2-23.119-17.56-29.42c5.488,43.29,0.608,88.271-17.352,114.169
			c-2.14,3.102-4.83,6.609-7.68,9.221c-0.15,0.141-0.7,0.98-1.102,0.439c2.11-11.068,4.28-23.221,3.512-36.449
			c-11.25,14.1-23.271,28.648-37.98,40.84c-14.479,12-31.16,22.6-52.7,26.57c-24.729,4.561-49.1-0.779-66.959-8.779
			c-18.14-8.131-33.479-20.111-46.329-32.281c24.01,1.08,42.489-1.26,58.619-6.799c8-2.75,14.9-7.201,21.301-11.641
			c6.488-4.5,12.438-10.021,19.539-13.391c0.609-0.301,1.619-0.85,2.421-1.1c5.09-1.611,13.63-0.441,18.438-2.641
			c2.48-1.131,5.04-4.891,3.95-9.221c-0.66-2.631-4.19-5.711-6.59-7.9c-7.312-6.698-17.12-12.839-28.54-14.27
			c-9.102-1.141-16.75,1.59-23.71,4.609c-12.96,5.601-26.021,15.16-43.91,11.189c-15.72-3.479-26.47-11.55-36.23-20.85
			c-6.51-6.21-11.329-13.15-18.01-18.891c-0.26-11.02,5.61-15.91,8.79-23.489c16.07,1.27,30.8,3.88,44.79,7.25
			c0.55-16.73-2.39-31.87-9.439-41.721c7.34-5.38,13.939-11.72,21.29-17.35c7.33-5.6,16.41-9.03,22.399-16.24
			c0.53-4.55,0.57-8.479,0.22-13.4c-6.989-1.239-15.1-1.01-22.84-1.539c-2.529-0.17-5.369,0.069-7.46-0.431
			c-2.35-0.569-7.56-4.609-9.659-6.149c-6.48-4.73-10.961-8.891-17.57-14.051c-1.54-1.21-7.87-5.09-8.34-7.25
			c-0.44-2.029,1.24-8.81,1.76-10.76c6.07-22.83,22-36.77,37.54-49.84c-30.729,3.88-50.94,18.3-69.38,34.47
			c-25.48-6.38-53.51,0.15-70.7,10.101c-6.12,3.55-11.97,7.22-18,10.54c8.11-8.75,19.2-14.44,27.44-23.49
			c8.239-9.05,16.699-17.76,26.13-25.47c18.939-15.49,41.09-27.69,66.53-36.891c25.22-9.13,55.909-14.71,89.8-13.17
			c32.261,1.46,60.021,9.34,82.989,20.2c-8.05,0.15-16.949-0.76-25.909-0.44c21.851,6.631,44.359,13.761,54.021,31.841
			c-10.971,0.51-21.95,1.02-30.521,3.949c23.189,9.29,46.54,19.74,64.771,34.471
			C1226.877,505.742,1243.326,523.682,1244.456,554.882z"/>
		<path fill="#FFFFFF" d="M853.627,500.212c-0.181-0.03-0.2,0.09-0.211,0.22C853.486,500.361,853.557,500.281,853.627,500.212z
			 M853.637,500.212c6.029-3.32,11.88-6.99,18-10.54c17.189-9.95,45.22-16.48,70.699-10.101c18.44-16.17,38.65-30.59,69.381-34.47
			c-15.54,13.07-31.471,27.01-37.54,49.84c-0.521,1.95-2.2,8.73-1.761,10.761c0.471,2.159,6.801,6.039,8.34,7.25
			c6.61,5.159,11.091,9.319,17.57,14.05c2.1,1.54,7.311,5.58,9.66,6.149c2.09,0.5,4.93,0.261,7.46,0.431
			c7.74,0.529,15.85,0.3,22.84,1.54c0.351,4.92,0.311,8.85-0.22,13.399c-5.99,7.21-15.07,10.641-22.4,16.24
			c-7.35,5.63-13.949,11.97-21.29,17.35c7.05,9.851,9.99,24.99,9.44,41.721c-13.99-3.37-28.721-5.98-44.79-7.25
			c-3.181,7.58-9.05,12.47-8.79,23.489c6.68,5.74,11.5,12.681,18.01,18.891c9.76,9.3,20.51,17.37,36.23,20.849
			c17.89,3.971,30.949-5.589,43.909-11.188c6.96-3.021,14.609-5.75,23.71-4.61c11.42,1.431,21.229,7.57,28.54,14.271
			c2.399,2.189,5.931,5.27,6.591,7.898c1.09,4.33-1.471,8.09-3.95,9.221c-4.811,2.199-13.351,1.029-18.439,2.641
			c-0.801,0.25-1.811,0.801-2.421,1.1c-7.1,3.371-13.05,8.891-19.539,13.391c-6.399,4.439-13.3,8.891-21.3,11.641
			c-16.13,5.541-34.61,7.881-58.62,6.801c12.85,12.17,28.19,24.15,46.33,32.279c17.86,8,42.23,13.34,66.959,8.779
			c21.54-3.971,38.221-14.568,52.7-26.568c14.71-12.191,26.729-26.74,37.979-40.84c0.771,13.229-1.399,25.379-3.511,36.449
			c0.4,0.539,0.95-0.301,1.101-0.439c2.851-2.611,5.54-6.121,7.681-9.221c17.96-25.9,22.84-70.88,17.351-114.169
			c9.359,6.3,12.21,19.109,17.561,29.42c9.529-32.271,3.6-75.36-3.729-104.73c6.439,3.37,13.271,7.59,18.88,11.641
			c0.67,0.47,1.229,1.71,2.199,1.31c-1.13-31.2-17.579-49.14-35.569-63.67c-18.229-14.73-41.579-25.18-64.771-34.47
			c8.57-2.931,19.55-3.44,30.521-3.95c-9.659-18.08-32.17-25.21-54.021-31.84c8.96-0.32,17.859,0.59,25.91,0.439
			c-22.971-10.859-50.729-18.74-82.99-20.2c-33.89-1.54-64.58,4.04-89.8,13.17c-25.44,9.2-47.59,21.4-66.53,36.891
			c-9.43,7.71-17.89,16.42-26.13,25.47C872.836,485.771,861.746,491.462,853.637,500.212z M1318.446,575.082
			c5.25,46.529-2.17,91.71-14.27,126.029c-12.521,35.488-30.091,66.109-50.94,92.658c-31.68,40.352-70.56,72.352-127.13,88.48
			c-27.43,7.83-61.92,12.689-97.04,9c-32.07-3.359-59.88-11.73-84.1-23.709c-32.061-15.861-58.87-36.291-82.11-61.48
			c-22.57-24.449-42.15-53.979-53.58-90.24c-5.569-17.689-9.58-39.948-10.1-61.698c-0.561-23.69,3.109-43.841,8.13-63.67
			c-4.51,2.079-9.26,6.989-13.83,9c3.45-26.7,13.51-47.461,25.9-66.301c1.79-2.72,4.43-5.96,5.05-8.569
			c1.069-4.431-0.21-10.391-0.44-15.15c-0.75-15.92,1.66-29.1,5.49-42.15c4.9-16.67,11.17-30.979,22.84-40.84
			c1.24,20.57,8.04,35.57,18,47.42c11.01-11.02,21.521-22.069,33.601-31.609c24.1-19.061,53.329-33.88,87.38-42.82
			c8.68-2.271,17.62-4.24,27.01-5.49c9.65-1.28,19.59-1.47,30.52-1.97c28.48-1.33,55.061,4.33,76.62,10.97
			c11.28,3.48,21.78,7.67,31.4,12.3c9.91,4.771,18.938,10.67,29.64,13.83c45.34,13.391,78.24,39.2,89.59,84.75
			c0.711-16.52-3.329-30.189-5.05-45.01c0.66-0.34,1.66,1.11,2.41,1.98c11.86,13.699,19.8,32.529,25.69,52.479
			c6.31,21.37,10.55,45.6,12.3,70.91C1313.996,588.052,1316.076,581.422,1318.446,575.082z"/>
		<path fill="#53C6E9" d="M853.627,500.212c-0.07,0.069-0.141,0.149-0.211,0.22C853.427,500.302,853.446,500.182,853.627,500.212z"
			/>
	</g>
</g>
</svg>
