<?xml version="1.0" encoding="utf-8"?>
<!-- Generator: Adobe Illustrator 12.0.0, SVG Export Plug-In . SVG Version: 6.00 Build 51448)  -->
<!DOCTYPE svg PUBLIC "-//W3C//DTD SVG 1.1//EN" "http://www.w3.org/Graphics/SVG/1.1/DTD/svg11.dtd" [
	<!ENTITY ns_svg "http://www.w3.org/2000/svg">
	<!ENTITY ns_xlink "http://www.w3.org/1999/xlink">
]>
<svg  version="1.1" id="Layer_1" xmlns="&ns_svg;" xmlns:xlink="&ns_xlink;" width="850" height="850" viewBox="0 0 850 850"
	 overflow="visible" enable-background="new 0 0 850 850" xml:space="preserve">
<path fill="#53C6E9" d="M-1250-455c0,0.552-0.448,1-1,1h-6c-0.552,0-1-0.448-1-1l0,0c0-0.552,0.448-1,1-1h6
	C-1250.448-456-1250-455.552-1250-455L-1250-455z"/>
<path fill="#53C6E9" d="M850,749.875c0,55.229-44.771,100-100,100H100c-55.229,0-100-44.771-100-100V100C0,44.771,44.771,0,100,0
	h650c55.229,0,100,44.771,100,100V749.875z"/>
<g>
	<g id="chromecast">
		<path fill="#FFFFFF" d="M431.019,166.484c-140.25,0-255,114.75-255,255s114.75,255,255,255s255-114.75,255-255
			S571.269,166.484,431.019,166.484z M431.019,217.484c76.5,0,140.25,40.8,175.95,102h-175.95c-48.45,0-91.8,35.7-99.45,81.6
			l-61.199-104.55C308.619,248.084,364.719,217.484,431.019,217.484z M507.519,421.484c0,43.35-33.15,76.5-76.5,76.5
			c-43.351,0-76.5-33.15-76.5-76.5s33.149-76.5,76.5-76.5C474.368,344.984,507.519,378.135,507.519,421.484z M227.019,421.484
			c0-38.25,10.2-71.4,28.05-102l89.25,153l0,0c17.85,30.6,51,51,86.7,51c12.75,0,22.95-2.55,33.15-5.1l-61.2,104.55
			C303.519,610.185,227.019,523.484,227.019,421.484z M431.019,625.484l89.25-153l0,0c7.65-15.3,15.3-33.15,15.3-51
			c0-30.6-12.75-58.65-35.7-76.5h122.4c10.2,22.95,15.3,48.45,15.3,76.5C635.019,533.685,543.219,625.484,431.019,625.484z"/>
	</g>
</g>
</svg>
